<svg xmlns="http://www.w3.org/2000/svg" width="80.997" height="81.069" viewBox="0 0 80.997 81.069"><g transform="translate(-9.627 -9.454)"><path d="M60.092,73.312a6.016,6.016,0,1,0,6.017,6.017A6.023,6.023,0,0,0,60.092,73.312Zm0,10.032a4.016,4.016,0,1,1,4.017-4.016A4.021,4.021,0,0,1,60.092,83.344Z" fill="#c29e75" stroke="#c29e75" stroke-width="1"/><path d="M79.735,68.659c-.128-43.85-8.649-57.673-9.016-58.244a.976.976,0,0,0-.768-.44,1.043,1.043,0,0,0-.158,0c-.032,0-.062,0-.094,0a.985.985,0,0,0-.778.442c-.365.571-8.886,14.393-9.014,58.242a10.673,10.673,0,1,0,9.864,15.138,10.668,10.668,0,1,0,9.964-15.136ZM70.878,15.625c1.65,4.426,4.029,12.723,5.508,26.416-1.234-.523-3.654-1.578-5.508-2.39ZM60.092,88a8.673,8.673,0,1,1,0-17.346h.815a1,1,0,0,0,1-1c0-7,.221-13.24.59-18.791h6.268V79.328A8.683,8.683,0,0,1,60.092,88Zm19.36,0a8.683,8.683,0,0,1-8.673-8.673c0-.026-.013-.047-.015-.073V49.978c0-.02-.01-.037-.011-.057s.011-.037.011-.057a1,1,0,0,0-1-1H62.64c1.365-18.165,4.333-28.536,6.237-33.545V40.305a1,1,0,0,0,.6.916c1.086.476,6.525,2.861,7.044,3.033.03.01.06.008.09.015.683,7.066,1.126,15.458,1.126,25.387a1,1,0,0,0,1,1h.716a8.672,8.672,0,1,1,0,17.345Z" fill="#c29e75" stroke="#c29e75" stroke-width="1"/><path d="M79.452,73.312a6.016,6.016,0,1,0,6.016,6.017A6.023,6.023,0,0,0,79.452,73.312Zm0,10.032a4.016,4.016,0,1,1,4.016-4.016A4.021,4.021,0,0,1,79.452,83.344Z" fill="#c29e75" stroke="#c29e75" stroke-width="1"/><path d="M38.782,83.062l-1-21.932a5.6,5.6,0,0,1,5.6-5.6h5.574a4.664,4.664,0,0,0,4.659-4.659V10.954a1,1,0,0,0-2,0V38.536H47.133V10.954a.9.9,0,0,0-1.8,0V38.536H41.389V10.954a.9.9,0,0,0-1.8,0V38.536H35.644V10.954a.9.9,0,0,0-1.8,0V38.536H29.9V10.954a.9.9,0,0,0-1.8,0V38.536H24.15V10.954a.9.9,0,0,0-1.8,0V38.536H18.406V10.954a.9.9,0,0,0-1.8,0V38.536H12.127V10.954a1,1,0,0,0-2,0V50.875a4.664,4.664,0,0,0,4.659,4.659h5.573a5.594,5.594,0,0,1,5.6,5.551l-1,22.023a6.913,6.913,0,1,0,13.826-.046Zm-11.829.091,1-22.023a7.6,7.6,0,0,0-7.6-7.6H14.784a2.662,2.662,0,0,1-2.659-2.659V40.337H51.612V50.875a2.662,2.662,0,0,1-2.659,2.659H43.379a7.613,7.613,0,0,0-7.6,7.642l1,21.933a4.915,4.915,0,0,1-9.83.044Z" fill="#c29e75" stroke="#c29e75" stroke-width="1"/></g></svg>