<svg xmlns="http://www.w3.org/2000/svg" width="81.239" height="80.789" viewBox="0 0 81.239 80.789"><g transform="translate(0.53 0.513)"><path d="M14.731,48.048,66.4,74.072c.171.856.334,1.683.486,2.469A6.546,6.546,0,0,0,78.114,79.8c8.895,3.893,9.92,9.364,9.933,9.437a1,1,0,0,0,.987.848.909.909,0,0,0,.147-.011,1,1,0,0,0,.844-1.135c-.04-.27-1.083-6.45-10.765-10.815a6.653,6.653,0,0,0,.672-3.152c-1-24.959-9.582-50.589-13.226-60.449a6.405,6.405,0,0,0-7.778-3.971l-4.694,1.306a6.438,6.438,0,0,0-4,9.176C56.338,32.721,61.1,50.1,64.249,63.981L45.906,54.9l.934-1.686a4.3,4.3,0,0,0-1.9-5.961l-28.221-13.5a4.3,4.3,0,0,0-5.478,1.563,8.894,8.894,0,0,0,3.494,12.732ZM51.872,16.305a4.443,4.443,0,0,1,2.9-2.521l4.694-1.307a4.548,4.548,0,0,1,1.218-.167,4.411,4.411,0,0,1,4.148,2.9c3.611,9.771,12.117,35.162,13.1,59.836a4.594,4.594,0,0,1-6.558,4.374,4.528,4.528,0,0,1-2.527-3.264c-2.732-14.12-8.553-40.18-16.841-56.054A4.4,4.4,0,0,1,51.872,16.305ZM12.923,36.393a2.3,2.3,0,0,1,2.929-.835l28.218,13.5a2.3,2.3,0,0,1,1.019,3.187l-1.442,2.6a1,1,0,0,0,.431,1.381L64.76,66.467c.015.007.03,0,.045.012.391,1.778.753,3.483,1.086,5.1L15.631,46.261a6.892,6.892,0,0,1-2.708-9.868Z" transform="translate(-9.839 -10.308)" fill="#c29e75" stroke="#c29e75" stroke-width="1"/></g></svg>