<svg xmlns="http://www.w3.org/2000/svg" width="80.864" height="81.052" viewBox="0 0 80.864 81.052"><g transform="translate(-9.827 -9.344)"><path d="M65.354,12.346a4.529,4.529,0,0,0-6.079-2l-.619.313a5.827,5.827,0,0,0-2.836,3.152,8.3,8.3,0,0,1-3.96,4.462L21.35,30.212c-.023.009-.038.028-.061.039a15.982,15.982,0,0,0,.079,30.337c.168.055.338.1.507.145l9.245,18.32a6.764,6.764,0,0,0,3.949,3.4A6.862,6.862,0,0,0,37.2,82.8a6.744,6.744,0,0,0,1.973-.308l2.245,2.936a1,1,0,0,0,1.245.286l1.107-.559,2.117,4.194a1,1,0,1,0,1.786-.9L45.56,84.252l1.106-.558a1,1,0,0,0,.51-1.171l-1.027-3.547A6.814,6.814,0,0,0,48.17,70.45L40.475,55.2,62.934,40.3a8.307,8.307,0,0,1,5.973-.557,5.839,5.839,0,0,0,4.221-.409l.62-.312a4.529,4.529,0,0,0,2-6.078ZM13.876,51.7a13.995,13.995,0,1,1,8.118,6.987A13.9,13.9,0,0,1,13.876,51.7ZM42.508,83.553l-1.445-1.89L44.363,80l.661,2.285Zm3.876-12.2a4.815,4.815,0,0,1-2.126,6.459L39.364,80.28a4.809,4.809,0,0,1-6.458-2.126l-8.526-16.9a15.781,15.781,0,0,0,11.5-3.019c.018-.01.038-.015.056-.026l2.86-1.9ZM72.847,37.236l-.621.312a3.833,3.833,0,0,1-2.777.269,10.325,10.325,0,0,0-7.468.723.878.878,0,0,0-.1.06L40.557,52.749a15.965,15.965,0,0,0-12.05-23.191L52.672,20.1a10.327,10.327,0,0,0,5.017-5.579,3.831,3.831,0,0,1,1.867-2.074l.62-.313a2.529,2.529,0,0,1,3.392,1.117l10.395,20.6A2.528,2.528,0,0,1,72.847,37.236Z" fill="#c29e75" stroke="#c29e75" stroke-width="1"/><path d="M29.711,51.836a7.255,7.255,0,1,0-3.255.777A7.262,7.262,0,0,0,29.711,51.836Zm-7.959-4.108a5.254,5.254,0,1,1,7.058,2.324A5.22,5.22,0,0,1,21.752,47.728Z" fill="#c29e75" stroke="#c29e75" stroke-width="1"/><path d="M85.533,20.122l-9.147,4.616a1,1,0,0,0,.9,1.786l9.147-4.616a1,1,0,0,0-.9-1.786Z" fill="#c29e75" stroke="#c29e75" stroke-width="1"/><path d="M88.674,13.006,74.161,20.33a1,1,0,0,0,.9,1.786l14.513-7.324a1,1,0,0,0-.9-1.786Z" fill="#c29e75" stroke="#c29e75" stroke-width="1"/><path d="M81.083,11.306l-9.147,4.616a1,1,0,0,0,.9,1.786l9.147-4.616a1,1,0,0,0-.9-1.786Z" fill="#c29e75" stroke="#c29e75" stroke-width="1"/></g></svg>